# xmcd
#
# Track frame offsets: 
#        150
#        12203
#        13652
#        25758
#        43461
#        64247
#        79272
#        90297
#        107612
#        121113
#        138882
#        156075
#
# Disc length: 2297 seconds
#
# Revision: 0
# Processed by: cddbd v1.5.2PL0 Copyright (c) Steve Scherf et al.
# Submitted via: ExactAudioCopy v0.99pb3
#
DISCID=8c08f70c
DTITLE=Opie Hendrix - Chupacabra
DYEAR=2006
DGENRE=Country
TTITLE0=Dead In A Ditch
TTITLE1=Put I Enif
TTITLE2=$50 Bill
TTITLE3=Wedged
TTITLE4=Daddy's Demons
TTITLE5=Sweet Weakness
TTITLE6=Nothin
TTITLE7=Way of The Buffalo
TTITLE8=Fire It Up
TTITLE9=Pathless Chosen
TTITLE10=Thank You Very Much
TTITLE11=Talking To Myself
EXTD=
EXTT0=
EXTT1=
EXTT2=
EXTT3=
EXTT4=
EXTT5=
EXTT6=
EXTT7=
EXTT8=
EXTT9=
EXTT10=
EXTT11=
PLAYORDER=
